<?xml version="1.0" encoding="UTF-8" standalone="no"?>
<!-- Created with Inkscape (http://www.inkscape.org/) -->

<svg
   version="1.1"
   id="svg1"
   width="1365.3333"
   height="1365.3333"
   viewBox="0 0 1365.3333 1365.3333"
   sodipodi:docname="VALISCI_2520AI.ai"
   xmlns:inkscape="http://www.inkscape.org/namespaces/inkscape"
   xmlns:sodipodi="http://sodipodi.sourceforge.net/DTD/sodipodi-0.dtd"
   xmlns="http://www.w3.org/2000/svg"
   xmlns:svg="http://www.w3.org/2000/svg">
  <defs
     id="defs1">
    <clipPath
       clipPathUnits="userSpaceOnUse"
       id="clipPath2">
      <path
         d="M 0,1024 H 1024 V 0 H 0 Z"
         transform="translate(-161.634,-405.02731)"
         id="path2" />
    </clipPath>
    <clipPath
       clipPathUnits="userSpaceOnUse"
       id="clipPath4">
      <path
         d="M 0,1024 H 1024 V 0 H 0 Z"
         transform="translate(-310.94121,-329.23141)"
         id="path4" />
    </clipPath>
    <clipPath
       clipPathUnits="userSpaceOnUse"
       id="clipPath6">
      <path
         d="M 0,1024 H 1024 V 0 H 0 Z"
         transform="translate(-411.67361,-405.02731)"
         id="path6" />
    </clipPath>
    <clipPath
       clipPathUnits="userSpaceOnUse"
       id="clipPath8">
      <path
         d="M 0,1024 H 1024 V 0 H 0 Z"
         transform="translate(0,-2.5000001e-5)"
         id="path8" />
    </clipPath>
    <clipPath
       clipPathUnits="userSpaceOnUse"
       id="clipPath10">
      <path
         d="M 0,1024 H 1024 V 0 H 0 Z"
         transform="translate(-626.66872,-280.98341)"
         id="path10" />
    </clipPath>
    <clipPath
       clipPathUnits="userSpaceOnUse"
       id="clipPath12">
      <path
         d="M 0,1024 H 1024 V 0 H 0 Z"
         transform="translate(-757.88259,-281.14651)"
         id="path12" />
    </clipPath>
    <clipPath
       clipPathUnits="userSpaceOnUse"
       id="clipPath14">
      <path
         d="M 0,1024 H 1024 V 0 H 0 Z"
         transform="translate(0,-2.5000001e-5)"
         id="path14" />
    </clipPath>
    <clipPath
       clipPathUnits="userSpaceOnUse"
       id="clipPath16">
      <path
         d="M 0,1024 H 1024 V 0 H 0 Z"
         transform="translate(0,-2.5000001e-5)"
         id="path16" />
    </clipPath>
    <clipPath
       clipPathUnits="userSpaceOnUse"
       id="clipPath18">
      <path
         d="M 0,1024 H 1024 V 0 H 0 Z"
         transform="translate(-310.53001,-817.92002)"
         id="path18" />
    </clipPath>
    <clipPath
       clipPathUnits="userSpaceOnUse"
       id="clipPath20">
      <path
         d="M 0,1024 H 1024 V 0 H 0 Z"
         transform="translate(-334.64001,-777.13002)"
         id="path20" />
    </clipPath>
    <clipPath
       clipPathUnits="userSpaceOnUse"
       id="clipPath22">
      <path
         d="M 0,1024 H 1024 V 0 H 0 Z"
         transform="translate(-374.56001,-709.61002)"
         id="path22" />
    </clipPath>
    <clipPath
       clipPathUnits="userSpaceOnUse"
       id="clipPath24">
      <path
         d="M 0,1024 H 1024 V 0 H 0 Z"
         transform="translate(-413.17001,-644.29002)"
         id="path24" />
    </clipPath>
    <clipPath
       clipPathUnits="userSpaceOnUse"
       id="clipPath26">
      <path
         d="M 0,1024 H 1024 V 0 H 0 Z"
         transform="translate(-368.88001,-789.92002)"
         id="path26" />
    </clipPath>
    <clipPath
       clipPathUnits="userSpaceOnUse"
       id="clipPath28">
      <path
         d="M 0,1024 H 1024 V 0 H 0 Z"
         transform="translate(-392.49001,-749.98002)"
         id="path28" />
    </clipPath>
    <clipPath
       clipPathUnits="userSpaceOnUse"
       id="clipPath30">
      <path
         d="M 0,1024 H 1024 V 0 H 0 Z"
         transform="translate(-519.39001,-535.33001)"
         id="path30" />
    </clipPath>
    <clipPath
       clipPathUnits="userSpaceOnUse"
       id="clipPath32">
      <path
         d="M 0,1024 H 1024 V 0 H 0 Z"
         transform="translate(-411.59001,-789.92002)"
         id="path32" />
    </clipPath>
    <clipPath
       clipPathUnits="userSpaceOnUse"
       id="clipPath34">
      <path
         d="M 0,1024 H 1024 V 0 H 0 Z"
         transform="translate(-435.70001,-715.65002)"
         id="path34" />
    </clipPath>
    <clipPath
       clipPathUnits="userSpaceOnUse"
       id="clipPath36">
      <path
         d="M 0,1024 H 1024 V 0 H 0 Z"
         transform="translate(-540.27001,-572.23001)"
         id="path36" />
    </clipPath>
    <linearGradient
       x1="0"
       y1="0"
       x2="1"
       y2="0"
       gradientUnits="userSpaceOnUse"
       gradientTransform="matrix(-113.09055,-213.94983,-213.94983,113.09055,723.11475,864.70929)"
       spreadMethod="pad"
       id="linearGradient38">
      <stop
         style="stop-opacity:1;stop-color:#00c7e3"
         offset="0"
         id="stop36" />
      <stop
         style="stop-opacity:1;stop-color:#111111"
         offset="0.737226"
         id="stop37" />
      <stop
         style="stop-opacity:1;stop-color:#111111"
         offset="1"
         id="stop38" />
    </linearGradient>
  </defs>
  <sodipodi:namedview
     id="namedview1"
     pagecolor="#ffffff"
     bordercolor="#000000"
     borderopacity="0.25"
     inkscape:showpageshadow="2"
     inkscape:pageopacity="0.0"
     inkscape:pagecheckerboard="0"
     inkscape:deskcolor="#d1d1d1">
    <inkscape:page
       x="0"
       y="0"
       inkscape:label="1"
       id="page1"
       width="1365.3333"
       height="1365.3333"
       margin="295.33334 215.51199 253.96133"
       bleed="0" />
  </sodipodi:namedview>
  <g
     id="layer-MC0"
     inkscape:groupmode="layer"
     inkscape:label="Layer 2">
    <path
       id="path1"
       d="m 0,0 h 23.798 l 22.005,-68.786 c 0.868,-2.827 1.737,-6.031 2.608,-9.617 0.868,-3.586 1.683,-6.956 2.445,-10.107 0.868,-3.695 1.737,-7.498 2.608,-11.41 h 0.326 c 0.868,3.912 1.737,7.715 2.608,11.41 0.759,3.151 1.574,6.521 2.445,10.107 0.868,3.586 1.737,6.79 2.608,9.617 L 83.13,0 h 23.146 L 65.037,-121.272 H 40.913 Z"
       style="fill:#111111;fill-opacity:1;fill-rule:nonzero;stroke:none"
       transform="matrix(1.3333333,0,0,-1.3333333,215.512,825.29693)"
       clip-path="url(#clipPath2)" />
    <path
       id="path3"
       d="m 0,0 h 34.882 l -9.291,28.036 c -1.197,3.586 -2.257,7.091 -3.178,10.514 -0.925,3.423 -1.712,6.546 -2.364,9.373 -0.761,3.26 -1.467,6.356 -2.119,9.291 H 17.604 C 16.733,53.844 15.865,50.421 14.996,46.944 14.235,44.011 13.392,40.832 12.47,37.409 11.545,33.986 10.595,30.861 9.617,28.036 Z M 5.868,75.796 H 29.992 L 74.165,-45.477 H 50.041 l -9.617,28.851 H -5.542 l -9.78,-28.851 h -22.82 z"
       style="fill:#111111;fill-opacity:1;fill-rule:nonzero;stroke:none"
       transform="matrix(1.3333333,0,0,-1.3333333,414.58827,926.35813)"
       clip-path="url(#clipPath4)" />
    <path
       id="path5"
       d="M 0,0 H 22.494 V -101.55 H 81.5 v -19.722 H 0 Z"
       style="fill:#111111;fill-opacity:1;fill-rule:nonzero;stroke:none"
       transform="matrix(1.3333333,0,0,-1.3333333,548.89813,825.29693)"
       clip-path="url(#clipPath6)" />
    <path
       id="path7"
       d="m 522.186,405.027 h 22.657 V 283.755 h -22.657 z"
       style="fill:#111111;fill-opacity:1;fill-rule:nonzero;stroke:none"
       transform="matrix(1.3333333,0,0,-1.3333333,0,1365.3333)"
       clip-path="url(#clipPath8)" />
    <path
       id="path9"
       d="m 0,0 c -8.369,0 -15.785,1.007 -22.25,3.016 -6.466,2.009 -11.927,4.834 -16.381,8.476 -4.457,3.64 -7.905,8.013 -10.35,13.121 -2.446,5.107 -3.778,10.758 -3.994,16.952 h 22.657 c 1.63,-15.647 11.79,-23.471 30.481,-23.471 3.26,0 6.357,0.351 9.291,1.059 2.934,0.705 5.514,1.793 7.742,3.26 2.227,1.467 3.966,3.314 5.216,5.542 1.248,2.226 1.875,4.862 1.875,7.905 0,3.26 -0.733,5.95 -2.2,8.069 -1.468,2.119 -3.561,3.912 -6.276,5.379 -2.717,1.467 -6.005,2.715 -9.862,3.749 -3.858,1.032 -8.178,2.091 -12.958,3.178 -5.651,1.304 -11.003,2.715 -16.055,4.239 -5.053,1.52 -9.455,3.586 -13.204,6.194 -3.749,2.607 -6.739,5.893 -8.964,9.861 -2.229,3.965 -3.342,8.991 -3.342,15.077 0,5.759 1.113,10.784 3.342,15.078 2.225,4.292 5.35,7.878 9.372,10.758 4.019,2.878 8.746,5.053 14.181,6.52 5.433,1.467 11.409,2.2 17.93,2.2 14.234,0 25.29,-3.178 33.171,-9.535 7.877,-6.357 12.413,-15.134 13.61,-26.324 H 21.027 c -0.871,5.974 -3.479,10.566 -7.824,13.773 -4.348,3.204 -10.106,4.809 -17.278,4.809 -6.846,0 -12.307,-1.332 -16.382,-3.994 -4.074,-2.664 -6.112,-6.439 -6.112,-11.328 0,-2.828 0.706,-5.163 2.119,-7.009 1.411,-1.85 3.448,-3.423 6.112,-4.728 2.662,-1.304 5.868,-2.444 9.617,-3.423 3.749,-0.977 7.959,-1.956 12.633,-2.933 5.649,-1.198 11.056,-2.609 16.219,-4.239 5.159,-1.629 9.752,-3.83 13.773,-6.601 4.019,-2.771 7.226,-6.331 9.617,-10.677 2.389,-4.347 3.586,-9.779 3.586,-16.3 0,-6.087 -1.197,-11.466 -3.586,-16.136 C 41.13,16.843 37.842,12.931 33.659,9.78 29.475,6.628 24.504,4.211 18.745,2.527 12.984,0.844 6.736,0 0,0"
       style="fill:#111111;fill-opacity:1;fill-rule:nonzero;stroke:none"
       transform="matrix(1.3333333,0,0,-1.3333333,835.55827,990.6888)"
       clip-path="url(#clipPath10)" />
    <path
       id="path11"
       d="m 0,0 c -8.802,0 -16.789,1.577 -23.961,4.728 -7.172,3.15 -13.312,7.523 -18.419,13.121 -5.109,5.595 -9.047,12.225 -11.817,19.886 -2.772,7.661 -4.157,16.055 -4.157,25.183 0,9.019 1.358,17.386 4.075,25.103 2.715,7.714 6.601,14.397 11.654,20.048 5.054,5.65 11.191,10.078 18.42,13.285 7.225,3.204 15.347,4.808 24.368,4.808 6.953,0 13.257,-0.871 18.908,-2.607 5.649,-1.741 10.539,-4.185 14.67,-7.335 4.89,-3.806 8.774,-8.369 11.655,-13.693 2.877,-5.325 4.699,-11.193 5.46,-17.603 H 28.362 c -1.088,6.519 -4.075,11.843 -8.965,15.973 -4.89,4.129 -11.357,6.195 -19.397,6.195 -5.761,0 -10.84,-1.116 -15.24,-3.342 -4.402,-2.229 -8.097,-5.325 -11.084,-9.291 -2.99,-3.968 -5.244,-8.639 -6.765,-14.019 -1.523,-5.378 -2.282,-11.22 -2.282,-17.522 0,-6.413 0.841,-12.306 2.526,-17.686 1.684,-5.378 4.075,-9.999 7.172,-13.854 3.098,-3.858 6.819,-6.874 11.166,-9.047 4.345,-2.175 9.235,-3.26 14.67,-3.26 4.564,0 8.583,0.706 12.062,2.119 3.476,1.412 6.438,3.342 8.883,5.787 2.446,2.445 4.373,5.269 5.787,8.476 1.411,3.204 2.282,6.654 2.608,10.351 H 52.16 C 51.941,39.717 50.502,33.823 47.841,28.118 45.177,22.413 41.728,17.495 37.49,13.366 28.578,4.455 16.081,0 0,0"
       style="fill:#111111;fill-opacity:1;fill-rule:nonzero;stroke:none"
       transform="matrix(1.3333333,0,0,-1.3333333,1010.5101,990.47133)"
       clip-path="url(#clipPath12)" />
    <path
       id="path13"
       d="m 839.709,405.027 h 22.657 V 283.755 h -22.657 z"
       style="fill:#111111;fill-opacity:1;fill-rule:nonzero;stroke:none"
       transform="matrix(1.3333333,0,0,-1.3333333,0,1365.3333)"
       clip-path="url(#clipPath14)" />
    <path
       id="path15"
       d="M 787.014,221.5 H 236.986 v 9.5 h 550.028 z"
       style="fill:#111111;fill-opacity:1;fill-rule:nonzero;stroke:none"
       transform="matrix(1.3333333,0,0,-1.3333333,0,1365.3333)"
       clip-path="url(#clipPath16)" />
    <path
       id="path17"
       d="M 0,0 -20.06,0.58 -3.18,-28 h 19.73 z"
       style="fill:#111111;fill-opacity:1;fill-rule:nonzero;stroke:none"
       transform="matrix(1.3333333,0,0,-1.3333333,414.04,274.77333)"
       clip-path="url(#clipPath18)" />
    <path
       id="path19"
       d="M 0,0 H -19.74 L 12.58,-54.74 H 32.36 Z"
       style="fill:#111111;fill-opacity:1;fill-rule:nonzero;stroke:none"
       transform="matrix(1.3333333,0,0,-1.3333333,446.18667,329.16)"
       clip-path="url(#clipPath20)" />
    <path
       id="path21"
       d="M 0,0 H -19.79 L 11.23,-52.54 H 31.06 Z"
       style="fill:#111111;fill-opacity:1;fill-rule:nonzero;stroke:none"
       transform="matrix(1.3333333,0,0,-1.3333333,499.41333,419.18667)"
       clip-path="url(#clipPath22)" />
    <path
       id="path23"
       d="m 0,0 h -19.83 l 98.19,-166.29 9.496,17.683 z"
       style="fill:#111111;fill-opacity:1;fill-rule:nonzero;stroke:none"
       transform="matrix(1.3333333,0,0,-1.3333333,550.89333,506.28)"
       clip-path="url(#clipPath24)" />
    <path
       id="path25"
       d="m 0,0 -0.63,1.07 -0.88,1.48 -0.61,1.03 -0.26,0.44 -1.63,2.76 -1.59,2.7 -1.32,2.22 -3.37,5.7 -0.24,0.42 -0.7,1.18 -2.53,4.29 -1.63,2.75 -0.1,0.17 -0.75,1.27 -0.31,0.52 -1.52,0.04 -6.08,0.18 -9.74,0.28 -0.41,0.01 -0.49,0.02 -0.29,0.01 -1.53,0.04 L -19.73,0 Z"
       style="fill:#111111;fill-opacity:1;fill-rule:nonzero;stroke:none"
       transform="matrix(1.3333333,0,0,-1.3333333,491.84,312.10667)"
       clip-path="url(#clipPath26)" />
    <path
       id="path27"
       d="m 0,0 -0.03,0.06 -2.19,3.7 -6.97,11.78 -0.03,0.06 -0.76,1.28 -0.01,0.02 -0.04,0.08 -0.02,0.03 -2.94,4.97 -0.15,0.25 -0.94,1.6 -0.99,1.67 -0.98,1.65 h -19.74 l 32.32,-54.74 h 19.78 l -1.78,3.01 -1.64,2.78 -0.48,0.82 -0.25,0.42 -0.46,0.77 -5.01,8.48 -6.19,10.47 -0.47,0.79 v 0.01 z"
       style="fill:#111111;fill-opacity:1;fill-rule:nonzero;stroke:none"
       transform="matrix(1.3333333,0,0,-1.3333333,523.32,365.36)"
       clip-path="url(#clipPath28)" />
    <path
       id="path29"
       d="m 0,0 -6.63,11.2 -1.16,1.97 -0.24,0.41 -0.15,0.25 -11.42,19.31 -0.29,0.51 -0.06,0.09 -9.86,16.69 -0.01,0.02 -0.32,0.52 -9.68,16.38 -0.13,0.22 v 0.01 l -0.24,0.4 -5.67,9.59 -0.05,0.08 -0.11,0.18 -10.79,18.26 -2.2,3.73 -0.37,0.61 -20.37,34.47 -0.24,0.4 -0.2,0.35 -17.22,29.13 -1.66,2.79 -0.37,0.64 -3.59,6.07 h -19.79 l 70.6,-119.57 0.54,-0.91 0.85,-1.44 30.58,-51.79 0.47,-0.79 0.07,-0.12 2.83,-4.79 0.01,-0.03 0.09,-0.14 4.55,-7.72 0.37,-0.62 0.31,-0.53 0.17,-0.27 0.73,-1.25 0.01,-0.01 1.44,-2.44 0.46,-0.78 0.05,-0.09 0.53,-0.88 v -0.01 l 0.211,-0.354 9.48,17.651 z"
       style="fill:#111111;fill-opacity:1;fill-rule:nonzero;stroke:none"
       transform="matrix(1.3333333,0,0,-1.3333333,692.52,651.56)"
       clip-path="url(#clipPath30)" />
    <path
       id="path31"
       d="m 0,0 -1.99,3.36 -3.53,5.96 -1.94,3.29 -3.74,6.33 -0.51,0.86 -0.01,0.01 -4.35,7.37 -0.49,0.82 -11.72,0.34 -7.54,0.22 h -0.11 L -36.62,28.58 -19.74,0 Z"
       style="fill:#111111;fill-opacity:1;fill-rule:nonzero;stroke:none"
       transform="matrix(1.3333333,0,0,-1.3333333,548.78667,312.10667)"
       clip-path="url(#clipPath32)" />
    <path
       id="path33"
       d="M 0,0 0.07,-0.12 22.83,-38.65 34.6,-58.58 h 19.81 l -5.58,9.44 -0.11,0.21 -0.12,0.18 -0.17,0.3 -14.36,24.28 -2.33,3.96 -2.37,4 -19.45,32.91 -0.09,0.15 -2.13,3.6 -1.54,2.61 -4.45,7.52 -0.82,1.38 -0.1,0.18 -0.1,0.16 -1.21,2.06 -0.03,0.04 -1.01,1.72 -1.65,2.79 -0.02,0.02 -0.17,0.29 -3.52,5.96 -0.64,1.09 -1.37,2.3 -0.01,0.02 -7.62,12.89 H -36.3 Z"
       style="fill:#111111;fill-opacity:1;fill-rule:nonzero;stroke:none"
       transform="matrix(1.3333333,0,0,-1.3333333,580.93333,411.13333)"
       clip-path="url(#clipPath34)" />
    <path
       id="path35"
       d="m 0,0 -42.6,72.06 h -19.83 l 22.89,-38.76 0.01,-0.03 0.75,-1.26 0.08,-0.15 0.06,-0.09 0.12,-0.2 3.03,-5.14 0.21,-0.35 0.28,-0.48 0.35,-0.58 0.08,-0.15 0.06,-0.09 1.77,-3.01 0.02,-0.02 7.45,-12.62 0.8,-1.36 0.3,-0.5 0.04,-0.07 1.72,-2.92 1.53,-2.59 5.05,-8.55 0.17,-0.29 0.09,-0.16 0.02,-0.02 1.63,-2.76 0.28,-0.48 0.29,-0.49 3.63,-6.15 v -0.01 l 0.12,-0.2 0.75,-1.26 0.356,-0.608 9.472,17.637 z"
       style="fill:#111111;fill-opacity:1;fill-rule:nonzero;stroke:none"
       transform="matrix(1.3333333,0,0,-1.3333333,720.36,602.36)"
       clip-path="url(#clipPath36)" />
    <path
       id="path38"
       d="m 541.248,570.579 -9.471,-17.637 -10.856,-20.215 -9.48,-17.651 L 501.026,495.682 491.53,478 h 0.19 41.61 8.484 l 191.716,355 -51.069,0.529 z"
       transform="matrix(1.3333333,0,0,-1.3333333,0,1365.3333)"
       style="fill:url(#linearGradient38);stroke:none" />
  </g>
</svg>
